<svg xmlns="http://www.w3.org/2000/svg" width="400" height="600" viewBox="0 0 400 600"><rect width="100%" height="100%" fill="#FFFFFF"/><path fill="#008000" d="M99.75 296.555h11.04v13.46q-2.53 1.86-5.39 2.73-2.87.86-6.13.86-4.07 0-7.37-1.27-3.3-1.26-5.64-3.52-2.33-2.25-3.6-5.38-1.26-3.13-1.26-6.83 0-3.75 1.22-6.88 1.22-3.12 3.46-5.38 2.24-2.25 5.44-3.49 3.2-1.25 7.17-1.25 2.03 0 3.79.33 1.76.32 3.26.88 1.51.56 2.75 1.37 1.24.8 2.28 1.77l-1.77 2.81q-.42.66-1.08.81-.67.15-1.45-.33-.76-.44-1.52-.87-.76-.44-1.69-.76-.93-.33-2.09-.53-1.17-.21-2.68-.21-2.46 0-4.45.83t-3.4 2.37q-1.4 1.54-2.16 3.7t-.76 4.83q0 2.85.82 5.1.82 2.24 2.3 3.79t3.58 2.37q2.09.82 4.67.82 1.83 0 3.28-.4 1.45-.39 2.83-1.05v-6.03h-4.18q-.6 0-.93-.33-.34-.34-.34-.82zm21.14-5.49.34 2.67q1.11-2.12 2.63-3.33 1.51-1.21 3.58-1.21 1.64 0 2.63.72l-.37 4.25q-.12.42-.34.59-.21.17-.58.17-.35 0-1.03-.11-.67-.12-1.32-.12-.94 0-1.68.28-.73.27-1.32.79t-1.03 1.26q-.45.73-.84 1.67v14.54h-5.68v-23.6h3.33q.87 0 1.22.31.34.31.46 1.12m16.63 7.66h10.72q0-1.11-.31-2.08-.31-.98-.94-1.72-.62-.73-1.57-1.16-.96-.42-2.22-.42-2.46 0-3.88 1.4-1.41 1.4-1.8 3.98m14.49 3.42H137.4q.14 1.82.65 3.14.5 1.33 1.33 2.19t1.97 1.29q1.14.42 2.52.42t2.38-.32 1.74-.71q.75-.39 1.32-.72.56-.32 1.09-.32.71 0 1.06.53l1.63 2.07q-.94 1.1-2.12 1.85-1.17.75-2.45 1.2-1.27.45-2.6.63-1.32.18-2.56.18-2.46 0-4.58-.81-2.11-.82-3.68-2.42-1.56-1.6-2.46-3.95-.89-2.36-.89-5.46 0-2.42.78-4.55t2.24-3.7q1.46-1.58 3.56-2.5 2.11-.92 4.75-.92 2.24 0 4.12.72 1.89.71 3.24 2.08 1.36 1.37 2.13 3.36t.77 4.54q0 1.29-.27 1.74-.28.44-1.06.44m10.07-3.42h10.72q0-1.11-.31-2.08-.31-.98-.93-1.72-.62-.73-1.58-1.16-.95-.42-2.22-.42-2.46 0-3.87 1.4-1.42 1.4-1.81 3.98m14.49 3.42h-14.6q.14 1.82.64 3.14.51 1.33 1.34 2.19.82.86 1.96 1.29 1.14.42 2.52.42t2.38-.32 1.75-.71 1.31-.72q.56-.32 1.09-.32.72 0 1.06.53l1.63 2.07q-.94 1.1-2.11 1.85-1.18.75-2.45 1.2-1.28.45-2.6.63t-2.57.18q-2.46 0-4.57-.81-2.12-.82-3.68-2.42-1.57-1.6-2.46-3.95-.9-2.36-.9-5.46 0-2.42.78-4.55t2.24-3.7q1.46-1.58 3.57-2.5 2.1-.92 4.75-.92 2.23 0 4.12.72 1.88.71 3.24 2.08t2.13 3.36.77 4.54q0 1.29-.28 1.74-.28.44-1.06.44m10.51-11.47.39 1.86q.72-.71 1.51-1.32t1.68-1.04q.89-.42 1.9-.66 1.01-.25 2.21-.25 1.93 0 3.42.66 1.5.65 2.5 1.84 1 1.18 1.52 2.83.51 1.64.51 3.62v15.02h-5.68v-15.02q0-2.16-.99-3.35-.99-1.18-3.01-1.18-1.47 0-2.76.67-1.29.66-2.44 1.81v17.07h-5.68v-23.6h3.47q1.11 0 1.45 1.04m52.35-7.57-1.54 2.92q-.28.48-.59.7t-.77.22q-.48 0-1.04-.36-.57-.35-1.35-.79t-1.83-.79q-1.04-.36-2.47-.36-1.29 0-2.25.31-.97.31-1.63.86-.65.56-.97 1.33t-.32 1.69q0 1.17.65 1.95.66.78 1.74 1.34 1.08.55 2.46.98 1.38.44 2.83.94 1.45.49 2.83 1.15 1.38.65 2.46 1.65t1.73 2.45q.66 1.45.66 3.52 0 2.26-.77 4.22-.77 1.97-2.26 3.43-1.48 1.46-3.62 2.3t-4.9.84q-1.58 0-3.12-.31-1.55-.31-2.96-.89-1.41-.57-2.66-1.38-1.24-.8-2.2-1.79l1.81-2.97q.23-.32.6-.54t.78-.22q.58 0 1.24.47.67.47 1.59 1.05t2.15 1.05 2.96.47q2.64 0 4.09-1.26 1.45-1.25 1.45-3.59 0-1.32-.66-2.14-.65-.83-1.73-1.4-1.08-.56-2.46-.95t-2.81-.85q-1.42-.46-2.8-1.1-1.38-.65-2.47-1.68-1.08-1.04-1.73-2.59-.66-1.55-.66-3.83 0-1.82.73-3.54.72-1.73 2.1-3.06 1.38-1.34 3.41-2.14 2.02-.81 4.64-.81 2.95 0 5.43.92t4.23 2.58m10.77-4.05v13.11q1.37-1.29 3.03-2.09 1.66-.81 3.89-.81 1.93 0 3.43.66 1.49.65 2.49 1.84 1 1.18 1.52 2.83.52 1.64.52 3.62v15.02h-5.69v-15.02q0-2.16-.98-3.35-.99-1.18-3.02-1.18-1.47 0-2.76.67-1.28.66-2.43 1.81v17.07h-5.69v-34.18zm30.7 10.21q2.62 0 4.77.86 2.15.85 3.68 2.41t2.36 3.82q.83 2.25.83 5.03 0 2.81-.83 5.06-.83 2.26-2.36 3.85-1.53 1.58-3.68 2.43t-4.77.85q-2.65 0-4.81-.85t-3.69-2.43q-1.53-1.59-2.37-3.85-.84-2.25-.84-5.06 0-2.78.84-5.03.84-2.26 2.37-3.82t3.69-2.41q2.16-.86 4.81-.86m0 19.94q2.94 0 4.36-1.97 1.41-1.98 1.41-5.8t-1.41-5.82q-1.42-2-4.36-2-2.99 0-4.43 2.01-1.44 2.02-1.44 5.81 0 3.8 1.44 5.79 1.44 1.98 4.43 1.98m21.67-12.67v10.58q.96 1.17 2.1 1.66 1.14.48 2.47.48 1.29 0 2.33-.48 1.03-.49 1.76-1.47.72-.99 1.11-2.5t.39-3.55q0-2.07-.33-3.51t-.96-2.33q-.62-.9-1.5-1.32-.89-.41-2.01-.41-1.78 0-3.02.75t-2.34 2.1m-.76-5.86.46 2.18q1.45-1.63 3.29-2.64 1.84-1.02 4.32-1.02 1.93 0 3.53.81 1.6.8 2.76 2.33t1.79 3.78q.64 2.24.64 5.14 0 2.64-.72 4.9-.71 2.25-2.03 3.91-1.32 1.65-3.2 2.58-1.87.93-4.2.93-1.97 0-3.38-.6-1.4-.61-2.5-1.7v9.67h-5.68v-31.31h3.47q1.1 0 1.45 1.04"/></svg>